<?xml version="1.0" encoding="UTF-8" standalone="no"?>
<svg viewBox="0 0 100 100" 
	xmlns="http://www.w3.org/2000/svg">
  <g>
    <path
       style="fill:#000000"
       d="m 11.340055,94.164873 c -0.358906,-0.358906 -0.652556,-2.923719 -0.652556,-5.699585 l 0,-5.047028 13.00304,-8.384653 C 37.923543,65.855846 38.948604,64.390756 34.352548,59.794701 30.800509,56.242662 29.654299,50.456685 30.219551,38.931654 c 0.565611,-11.532358 1.241251,-13.772218 5.678854,-18.82637 8.334316,-9.492262 23.064122,-9.550056 31.341212,-0.122971 4.479791,5.1022 5.299213,9.00245 4.932393,23.477006 L 71.849948,56.167752 68.554,59.565455 c -4.616535,4.75906 -3.573118,6.334532 9.822017,14.830428 13.946866,8.84583 14.376034,9.313116 13.998622,15.241911 l -0.297739,4.67718 -40.042144,0.251227 c -22.02318,0.138175 -40.335795,-0.04242 -40.694701,-0.401328 z m 78.319592,-5.388231 -0.0092,-4.09355 -12.993757,-8.395281 -12.993758,-8.39528 0,-3.774593 c 0,-2.94644 0.519575,-4.11503 2.36814,-5.326257 3.507947,-2.298495 4.646598,-7.533869 4.237114,-19.48171 C 69.951538,30.072234 69.604146,28.298867 67.361763,24.473479 60.45426,12.689637 42.833727,12.557176 35.573455,24.234512 c -1.986285,3.194719 -2.290288,5.049057 -2.585109,15.768508 -0.358041,13.018103 0.610214,16.983679 4.678427,19.16092 2.014367,1.078056 2.646205,6.021217 1.084435,8.484029 -0.441362,0.695998 -6.394451,4.84387 -13.229089,9.217493 -10.479854,6.706269 -12.475589,8.369215 -12.739239,10.614965 -0.663982,5.65577 -2.579401,5.389764 38.809923,5.389764 l 38.076163,0 -0.0092,-4.093549 z"/>
  </g>
</svg>
